<svg xmlns="http://www.w3.org/2000/svg" viewBox="0 0 108 108" width="1024" height="1024">
  <rect width="108" height="108" fill="#152238"/>
  <path fill="#8A94A6" d="M48,74 h12 v24 l-6,-7 -6,7 Z"/>
  <path fill="none" stroke="#DBE0E8" stroke-width="7" stroke-linecap="round" stroke-linejoin="round"
        d="M54,80 C 42,80 34,71 32,60 L28,32 L44,44 C 50,41 58,41 64,44 L80,32 L76,60 C 74,71 66,80 54,80 Z"/>
  <path fill="#3D5A8A" d="M33,61 C 35,71 43,79 54,79 C 65,79 73,71 75,61 C 67,67 61,70 54,70 C 47,70 41,67 33,61 Z"/>
  <circle cx="45" cy="55" r="2.6" fill="#0F1B31"/>
  <circle cx="63" cy="55" r="2.6" fill="#0F1B31"/>
  <path fill="#0F1B31" d="M54,66 l-4,-5 h8 Z"/>
</svg>
